<svg width="114" height="79" viewBox="0 0 114 79" fill="none" xmlns="http://www.w3.org/2000/svg">
<g clip-path="url(#clip0_31_1376)">
<path fill-rule="evenodd" clip-rule="evenodd" d="M4.41113 46.9408C4.44761 20.9627 28.0137 -0.0550081 57.0335 0.000108154C86.0625 0.0460384 109.565 21.1464 109.51 47.1245L109.474 49.7334L109.519 57.5874L109.565 62.456C109.565 64.8811 108.817 67.1042 107.376 68.9046C106.136 70.4479 103.235 73.0384 97.7087 73.0384H97.1889C95.8391 73.0384 94.7265 73.02 93.4314 73.0016H93.1943C91.4159 72.9741 89.1815 72.9373 85.4515 72.9281H82.8249C76.4808 72.9192 70.1503 73.519 63.9191 74.7194L63.8462 74.7286C63.0254 74.9123 60.8275 75.4359 59.5415 75.8585L57.2615 76.5934L54.9633 75.9687C52.8292 75.3808 50.6769 74.8296 50.2939 74.7561C48.3331 74.3428 41.2377 73.02 31.6161 73.0108H31.2878C25.8705 73.02 23.098 73.0751 20.8819 73.1118H20.6539C19.222 73.1394 17.9999 73.167 16.4222 73.167H16.3857C9.40889 73.167 4.53881 68.8495 4.51145 62.6949L4.42025 49.9446L4.41113 46.9408Z" fill="#001689"/>
<path fill-rule="evenodd" clip-rule="evenodd" d="M4.40332 51.8094C4.46716 25.372 28.0697 6.43036 57.0713 6.48547C86.0638 6.54059 109.612 25.5557 109.566 52.0299V52.4524L4.41244 52.6637V51.8278L4.40332 51.8094Z" fill="#FFF8FF"/>
<path fill-rule="evenodd" clip-rule="evenodd" d="M56.962 7.65225C37.5911 7.65225 20.6826 16.232 11.9092 29.9009C16.3962 41.0619 35.3111 49.4671 57.9652 49.5039C79.3972 49.5406 97.4913 42.0907 103.237 31.8667C94.8465 17.0863 77.3178 7.689 57.0623 7.64307H56.9711" fill="url(#paint0_radial_31_1376)"/>
<path fill-rule="evenodd" clip-rule="evenodd" d="M80.501 26.9704C78.221 25.4087 73.05 21.5873 70.3687 20.8341C66.365 19.695 61.8871 23.1949 59.443 23.6818C57.0079 24.1411 55.2295 21.2199 52.9678 21.174C51.1438 21.1372 42.3156 24.7014 39.835 25.6384L45.2614 27.9716C46.0092 28.4585 66.1826 32.8862 81.7049 28.4309L80.501 26.9612V26.9704Z" fill="#FFF8FF"/>
<path fill-rule="evenodd" clip-rule="evenodd" d="M39.835 25.6385C42.3156 24.7016 51.1438 21.1374 52.9678 21.1741C53.9527 21.1833 54.8465 21.7528 55.7402 22.3591C54.4634 22.0192 52.2199 20.6138 51.2167 22.9838C50.706 24.1963 49.8487 26.8143 48.7908 27.191C46.146 28.5689 39.835 25.6385 39.835 25.6385Z" fill="#3EBFEF"/>
<path fill-rule="evenodd" clip-rule="evenodd" d="M63.1441 23.9758C65.2326 22.8275 65.8437 21.8814 66.172 20.9995C63.4633 21.7436 60.4993 23.6543 59.0493 23.7186C58.5477 23.737 58.2467 23.6451 57.8728 23.544C57.7633 24.0952 57.2344 25.1792 56.9152 25.8222C56.295 27.1082 54.9088 27.6594 53.9421 28.4218L53.9238 28.4494C55.611 29.0924 57.0337 30.8378 58.7665 30.5346L59.56 30.1672C59.8792 29.0465 60.7182 25.2986 63.1441 23.9666" fill="#EBF6FC"/>
<path fill-rule="evenodd" clip-rule="evenodd" d="M66.7308 20.8524C64.7426 21.3669 62.0796 22.6254 60.5474 23.3143C59.9272 23.5991 60.7024 25.7394 60.7754 26.6856C61.3322 25.6187 62.2102 24.7569 63.2834 24.2237C65.1165 23.2224 66.0832 22.5978 66.3568 21.817L66.6669 20.9994L66.7308 20.8433V20.8524Z" fill="#93D5F5"/>
<mask id="mask0_31_1376" style="mask-type:luminance" maskUnits="userSpaceOnUse" x="5" y="7" width="104" height="45">
<path d="M5.50814 51.4877L108.473 51.2672C108.072 25.7851 85.1805 7.70697 57.0635 7.65186H56.9723C28.7368 7.65186 5.74526 25.8678 5.49902 51.4877H5.50814Z" fill="white"/>
</mask>
<g mask="url(#mask0_31_1376)">
<path fill-rule="evenodd" clip-rule="evenodd" d="M1.58564 24.6272C1.58564 24.6272 6.46484 24.3608 29.0733 20.5302C39.4336 18.7757 54.0986 30.8002 62.9632 29.7163C71.8188 28.6139 84.3496 24.4986 93.5152 24.2414C101.203 24.0209 108.791 27.5759 108.791 27.5759L108.755 46.9217L1.54004 46.7288L1.58564 24.6272Z" fill="#006F3F"/>
</g>
<mask id="mask1_31_1376" style="mask-type:luminance" maskUnits="userSpaceOnUse" x="5" y="7" width="104" height="45">
<path d="M5.50814 51.4877L108.473 51.2672C108.072 25.7851 85.1805 7.70697 57.0635 7.65186H56.9723C28.7368 7.65186 5.74526 25.8678 5.49902 51.4877H5.50814Z" fill="white"/>
</mask>
<g mask="url(#mask1_31_1376)">
<path fill-rule="evenodd" clip-rule="evenodd" d="M1.52246 32.9594C1.52246 32.9594 31.053 32.3806 41.3677 30.2495C50.2415 28.4215 58.0117 32.4725 62.4897 32.4266C66.9676 32.3898 69.3297 29.8085 78.5135 29.9463C89.3389 30.1025 108.81 33.5381 108.81 33.5381L108.746 47.0324L1.54982 46.8487L1.52246 32.9594Z" fill="#FFEC00"/>
</g>
<mask id="mask2_31_1376" style="mask-type:luminance" maskUnits="userSpaceOnUse" x="5" y="7" width="104" height="45">
<path d="M5.50814 51.4877L108.473 51.2672C108.072 25.7851 85.1805 7.70697 57.0635 7.65186H56.9723C28.7368 7.65186 5.74526 25.8678 5.49902 51.4877H5.50814Z" fill="white"/>
</mask>
<g mask="url(#mask2_31_1376)">
<path fill-rule="evenodd" clip-rule="evenodd" d="M1.50488 40.0508C1.50488 40.0508 30.4335 33.5287 41.2042 32.013C50.1966 30.7453 58.5322 34.1717 63.0193 34.1258C67.4881 34.0891 69.4033 32.0865 78.5962 32.2243C89.4217 32.3805 108.811 38.6086 108.811 38.6086L111.182 52.9572L1.52312 53.1226L1.50488 40.06V40.0508Z" fill="#81B82E"/>
</g>
<path fill-rule="evenodd" clip-rule="evenodd" d="M54.7823 78.0448C52.4567 77.4293 50.1311 76.8414 49.7116 76.7587C43.0343 75.5105 36.2564 74.8893 29.4652 74.9031H29.1095C23.2453 74.9031 20.2448 74.9766 17.8372 75.0226H17.5818C16.0405 75.0501 14.709 75.0777 12.9944 75.0777H12.9671C5.39747 75.0685 0.116994 70.4938 0.0896343 63.9717L-0.00156576 50.4407C-0.0268388 48.8685 0.299403 47.3107 0.952991 45.8828C1.60658 44.4548 2.57076 43.1933 3.77411 42.1916C5.39747 40.8229 8.27939 39.2153 12.8394 39.2153H13.5872C14.9552 39.2153 16.1226 39.2337 17.445 39.2521H17.7095C19.3876 39.2796 21.9229 39.3256 26.1911 39.3348H28.9727C35.8602 39.35 42.7337 38.7102 49.5018 37.4241C51.0827 37.0899 52.6496 36.6915 54.1986 36.2299L56.8708 35.3848L59.5429 36.2115C60.9474 36.6524 63.346 37.222 64.258 37.4057C66.392 37.8283 74.1805 39.2337 84.4679 39.2429H84.8327C90.6877 39.2429 93.6791 39.1878 96.0776 39.1327H96.1324C97.7375 39.1051 99.1328 39.0867 100.948 39.0776H101.021C108.545 39.0867 113.825 43.6706 113.871 50.2202L113.916 58.552L113.962 63.7053C113.962 66.2866 113.141 68.6474 111.591 70.549C110.241 72.1841 107.095 74.9307 101.121 74.9399H100.556C99.0781 74.9399 97.8834 74.9215 96.4789 74.9031H96.2327C94.281 74.8664 91.8733 74.8296 87.824 74.8205H84.9786C74.5818 74.8388 66.7112 76.2719 64.4951 76.7128L64.413 76.7403C63.5192 76.9149 61.1298 77.4936 59.7436 77.9254L57.272 78.7062L54.7823 78.0448Z" fill="#E52329"/>
<path fill-rule="evenodd" clip-rule="evenodd" d="M56.0414 73.1395C56.0049 73.1303 51.6182 71.9728 50.7062 71.7891C48.4718 71.339 40.3641 69.86 29.4839 69.8417H29.1191C23.182 69.8508 20.1724 69.906 17.7465 69.9519H17.4729C15.9498 69.9886 14.6457 70.007 13.0041 70.007H12.9585C10.5052 70.007 8.38936 69.3364 6.97576 68.1147C6.37644 67.6039 5.89886 66.9638 5.57839 66.2419C5.25791 65.52 5.10276 64.7347 5.1244 63.9442L5.0332 50.404C5.0332 48.6586 5.69896 47.1613 6.994 46.0774C7.96984 45.2506 9.79384 44.2677 12.849 44.2769H13.5786C14.9375 44.2769 16.1231 44.2953 17.3817 44.3136H17.637C21.4152 44.3928 25.1943 44.4204 28.9732 44.3963C36.1942 44.4124 43.4005 43.7419 50.4964 42.3938C51.5178 42.1825 54.0714 41.5854 55.713 41.0618L56.8804 40.6943L58.0569 41.0618C59.7167 41.567 62.3068 42.1641 63.2735 42.3662C65.5262 42.8255 73.7068 44.2953 84.4502 44.3045L84.8423 44.3136C90.7338 44.3136 93.7526 44.2493 96.1785 44.2034H96.2332C97.8201 44.1667 99.1972 44.1391 100.957 44.1391H101.012C103.447 44.1391 105.572 44.8189 106.967 46.0314C107.572 46.5511 108.053 47.2001 108.377 47.9312C108.7 48.6623 108.857 49.4569 108.837 50.257L108.883 58.5796L108.937 63.7513C108.937 65.1292 108.518 66.3418 107.724 67.3247C106.94 68.28 105.043 69.8692 101.103 69.8876H100.556L96.7257 69.8417L96.3153 69.8325C94.3545 69.8049 91.9194 69.7682 87.8428 69.759H84.9791C77.7738 69.7458 70.5831 70.4132 63.5015 71.7524L63.383 71.7799C61.6476 72.1473 59.9284 72.5886 58.2302 73.1027L57.154 73.4334L56.0414 73.1395Z" fill="#FFF8FF"/>
<path fill-rule="evenodd" clip-rule="evenodd" d="M100.502 48.3192H104.852L104.825 64.7439H100.584V63.7426C99.9089 64.5418 98.8418 65.0654 97.3096 65.0746C94.0447 65.0746 92.6402 61.6206 92.5855 58.2494V58.0289C92.5672 55.3466 93.8805 51.9018 97.4373 51.8834C98.7688 51.8834 100.128 52.2233 100.465 52.9123H100.502V48.3192ZM72.9592 51.8375H73.2693L73.5794 51.8559C75.5949 51.9845 77.6743 52.7837 77.7746 55.5946V55.8151L77.7655 64.698L73.9077 64.6888L73.8986 63.7151L73.7618 63.8529L73.625 63.9906C72.969 64.6465 72.0868 65.0216 71.1626 65.0379C68.609 65.047 67.0768 64.009 67.0586 61.3634C67.0586 59.1312 68.5634 58.1759 70.1503 57.5972L70.5151 57.4686L70.8799 57.3491L72.0928 57.0001L72.4029 56.9082C73.2055 56.651 73.7709 56.3662 73.7527 55.8518C73.7253 55.0251 73.0413 54.8965 72.3664 54.8965H72.257C71.0714 54.8965 70.1868 55.2363 69.1288 55.7691L67.998 56.3662L68.2716 53.2246C69.6122 52.0488 71.1991 51.8467 72.9592 51.8467V51.8375ZM41.9877 51.8099H42.2157L42.6808 51.8283C43.7296 51.8742 44.8696 52.0304 45.4898 52.4254L45.6175 52.5173V56.4489C45.0064 55.9161 43.2372 55.8059 42.7447 55.8702C41.4314 56.0815 40.3735 56.8255 40.3735 58.6903C40.3735 60.2244 41.0575 61.4553 42.6535 61.4645C43.8573 61.4645 45.0794 61.1889 45.5263 60.9501L45.6084 60.9041L45.5901 64.551C45.2071 64.7255 44.3407 64.8266 43.4925 64.8909L42.9362 64.9368L42.6626 64.946L42.1792 64.9644L41.632 64.9827C37.4368 64.9827 36.0871 61.887 36.0688 58.4239C36.0506 54.5106 37.984 51.8008 41.9968 51.8099H41.9877ZM28.9461 51.7916C29.1285 51.7916 29.3109 51.7916 29.5116 51.8099L29.8034 51.8467L30.0952 51.8926L30.3962 51.9477L30.6972 52.0304C32.8221 52.6091 35.0565 54.3637 35.0565 58.2861C35.0565 63.3384 31.3812 64.9552 28.9735 64.9552L28.554 64.946L28.2712 64.9184C25.9 64.6429 22.8266 62.8791 22.8266 58.3137C22.8357 53.7298 25.8909 52.1039 28.253 51.8283L28.5448 51.8008L28.9552 51.7916H28.9461ZM87.5239 51.8283C89.5485 51.8283 91.4637 53.1052 91.482 56.0172L91.4637 64.7163H87.0952L87.1226 57.8544C87.1226 56.2836 86.7213 55.714 85.5357 55.714C84.5234 55.714 83.8576 56.2652 83.8668 57.8084L83.8576 64.698H79.4892L79.5165 52.2325H83.8759V53.3716L83.9671 53.2522C84.7696 52.1131 85.8367 51.8283 87.5056 51.8283H87.5239ZM61.2948 48.2458L65.4535 48.2549L65.4261 64.6704H61.085L61.1032 48.2549H61.2856L61.2948 48.2458ZM47.3776 48.2274L51.664 48.2366V53.4634L51.7644 53.3165C52.5578 52.1774 53.6157 51.8834 55.2756 51.8834C57.3093 51.8834 59.188 53.1603 59.2063 56.0631L59.188 64.6612H54.9016V57.9095C54.9016 56.3387 54.5004 55.7783 53.3056 55.7783C52.3024 55.7783 51.6823 56.357 51.6914 57.8911L51.6732 64.652H47.3503L47.3776 48.2274ZM9.52964 48.1631H13.889L13.8799 53.8309H17.1084L17.1175 48.1723L21.486 48.1815L21.4495 64.5969L17.0992 64.5877V58.2218H13.8799L13.8708 64.5786H9.49316L9.52964 48.1631ZM74.2725 58.8281C74.2725 58.9475 74.1266 59.0394 73.8895 59.1129L73.6615 59.1863L72.9319 59.3792L72.4394 59.5354L72.0928 59.6548C71.6004 59.8569 70.9437 60.206 70.9346 61.0327C70.9437 61.7676 71.7007 62.0983 72.1658 62.0983C72.5944 62.0983 72.9592 61.9973 73.2602 61.8136L73.3879 61.7217C73.853 61.4461 74.1266 60.9409 74.2269 60.206L74.2452 60.0223C74.2816 59.6548 74.2999 59.269 74.2725 58.8281ZM98.4223 55.4292C97.6015 55.4292 96.197 55.9988 96.197 58.4331C96.2152 60.8398 97.6197 61.4094 98.4405 61.4094C99.2613 61.4094 100.538 60.8398 100.538 58.4055C100.511 55.9804 99.2431 55.4292 98.4223 55.4292ZM28.9279 55.4292C27.9976 55.4292 26.5749 55.962 26.584 58.2769C26.584 60.5918 28.025 61.1246 28.9552 61.1246C29.8855 61.1246 31.3264 60.5826 31.3082 58.2769C31.29 55.962 29.8672 55.4292 28.937 55.4292H28.9279Z" fill="#001689"/>
</g>
<defs>
<radialGradient id="paint0_radial_31_1376" cx="0" cy="0" r="1" gradientUnits="userSpaceOnUse" gradientTransform="translate(1597.75 -4610.61) rotate(-90) scale(4427.43 1853.66)">
<stop stop-color="#F3FBFF"/>
<stop offset="0.5346" stop-color="#DDF1FB"/>
<stop offset="0.6683" stop-color="#C6E8F9"/>
<stop offset="1" stop-color="#80CFF3"/>
</radialGradient>
<clipPath id="clip0_31_1376">
<rect width="114" height="79" fill="white"/>
</clipPath>
</defs>
</svg>
